<svg width="16" height="18" viewBox="0 0 16 18" fill="none" xmlns="http://www.w3.org/2000/svg">
<path d="M9.99915 9V16.88C10.0392 17.18 9.93915 17.5 9.70915 17.71C9.61664 17.8027 9.50675 17.8762 9.38578 17.9264C9.2648 17.9766 9.13512 18.0024 9.00415 18.0024C8.87319 18.0024 8.7435 17.9766 8.62253 17.9264C8.50156 17.8762 8.39167 17.8027 8.29915 17.71L6.28915 15.7C6.18015 15.5933 6.09727 15.4629 6.04696 15.319C5.99666 15.175 5.9803 15.0213 5.99915 14.87V9H5.96915L0.209155 1.62C0.0467627 1.41153 -0.0265117 1.14726 0.00534243 0.88493C0.0371966 0.622602 0.171589 0.383546 0.379155 0.22C0.569155 0.08 0.779155 0 0.999155 0H14.9992C15.2192 0 15.4292 0.08 15.6192 0.22C15.8267 0.383546 15.9611 0.622602 15.993 0.88493C16.0248 1.14726 15.9515 1.41153 15.7892 1.62L10.0292 9H9.99915Z" fill="#9CA3AF"/>
</svg>
