<svg width="119" height="114" viewBox="0 0 119 114" fill="none" xmlns="http://www.w3.org/2000/svg">
<g filter="url(#filter0_d_790_96)">
<path d="M114.488 43.5C114.488 67.5244 95.0127 87 70.9883 87C46.9639 87 27.4883 67.5244 27.4883 43.5C27.4883 19.4756 46.9639 0 70.9883 0C95.0127 0 114.488 19.4756 114.488 43.5ZM38.6752 43.5C38.6752 61.346 53.1423 75.8131 70.9883 75.8131C88.8343 75.8131 103.301 61.346 103.301 43.5C103.301 25.654 88.8343 11.1869 70.9883 11.1869C53.1423 11.1869 38.6752 25.654 38.6752 43.5Z" fill="#41FAAA"/>
</g>
<g filter="url(#filter1_d_790_96)">
<rect x="38.2998" y="66.0557" width="12.9211" height="45.2944" transform="rotate(49.2236 38.2998 66.0557)" fill="#41FAAA"/>
</g>
<rect x="45" y="13" width="16" height="92" fill="url(#paint0_linear_790_96)"/>
<rect x="98" y="12" width="16" height="91" transform="rotate(90 98 12)" fill="url(#paint1_linear_790_96)"/>
<rect x="71" y="42" width="18" height="63" fill="url(#paint2_linear_790_96)"/>
<rect x="114" y="34" width="18" height="43" transform="rotate(90 114 34)" fill="url(#paint3_linear_790_96)"/>
<defs>
<filter id="filter0_d_790_96" x="23.4883" y="0" width="95" height="95" filterUnits="userSpaceOnUse" color-interpolation-filters="sRGB">
<feFlood flood-opacity="0" result="BackgroundImageFix"/>
<feColorMatrix in="SourceAlpha" type="matrix" values="0 0 0 0 0 0 0 0 0 0 0 0 0 0 0 0 0 0 127 0" result="hardAlpha"/>
<feOffset dy="4"/>
<feGaussianBlur stdDeviation="2"/>
<feComposite in2="hardAlpha" operator="out"/>
<feColorMatrix type="matrix" values="0 0 0 0 0 0 0 0 0 0 0 0 0 0 0 0 0 0 0.25 0"/>
<feBlend mode="normal" in2="BackgroundImageFix" result="effect1_dropShadow_790_96"/>
<feBlend mode="normal" in="SourceGraphic" in2="effect1_dropShadow_790_96" result="shape"/>
</filter>
<filter id="filter1_d_790_96" x="0" y="66.0557" width="50.7383" height="47.3667" filterUnits="userSpaceOnUse" color-interpolation-filters="sRGB">
<feFlood flood-opacity="0" result="BackgroundImageFix"/>
<feColorMatrix in="SourceAlpha" type="matrix" values="0 0 0 0 0 0 0 0 0 0 0 0 0 0 0 0 0 0 127 0" result="hardAlpha"/>
<feOffset dy="4"/>
<feGaussianBlur stdDeviation="2"/>
<feComposite in2="hardAlpha" operator="out"/>
<feColorMatrix type="matrix" values="0 0 0 0 0 0 0 0 0 0 0 0 0 0 0 0 0 0 0.25 0"/>
<feBlend mode="normal" in2="BackgroundImageFix" result="effect1_dropShadow_790_96"/>
<feBlend mode="normal" in="SourceGraphic" in2="effect1_dropShadow_790_96" result="shape"/>
</filter>
<linearGradient id="paint0_linear_790_96" x1="44.7363" y1="-8.76344" x2="105.177" y2="13.9985" gradientUnits="userSpaceOnUse">
<stop/>
<stop offset="1" stop-color="#082F5F"/>
</linearGradient>
<linearGradient id="paint1_linear_790_96" x1="97.7363" y1="-9.52688" x2="158.011" y2="13.4222" gradientUnits="userSpaceOnUse">
<stop/>
<stop offset="1" stop-color="#082F5F"/>
</linearGradient>
<linearGradient id="paint2_linear_790_96" x1="72.622" y1="124.975" x2="121.739" y2="110.805" gradientUnits="userSpaceOnUse">
<stop stop-color="#6366F1"/>
<stop offset="1" stop-color="#5A5CC4"/>
</linearGradient>
<linearGradient id="paint3_linear_790_96" x1="115.622" y1="90.6337" x2="160.762" y2="71.5535" gradientUnits="userSpaceOnUse">
<stop stop-color="#6366F1"/>
<stop offset="1" stop-color="#5A5CC4"/>
</linearGradient>
</defs>
</svg>
